<?xml version="1.0" encoding="utf-8" ?>
<svg baseProfile="full" height="560px" version="1.1" viewBox="0 0 900 560" width="900px" xmlns="http://www.w3.org/2000/svg" xmlns:ev="http://www.w3.org/2001/xml-events" xmlns:xlink="http://www.w3.org/1999/xlink"><defs /><rect fill="#1e1e1e" height="560" width="900" x="0" y="0" /><text fill="#dddddd" font-family="Microsoft YaHei, PingFang SC, Noto Sans SC, sans-serif" font-size="20px" font-weight="bold" text-anchor="middle" x="450" y="34">灯光色温：用 K（开尔文）控制冷暖</text><text fill="#9aa0a6" font-family="Microsoft YaHei, PingFang SC, Noto Sans SC, sans-serif" font-size="13px" font-weight="normal" text-anchor="middle" x="450" y="64">K 值越低越暖（橙），K 值越高越冷（蓝）—— 和直觉相反，记住就行</text><rect fill="#2b2b2b" height="190" rx="12" ry="6" stroke="#ff9e4e" stroke-width="2" width="380" x="60" y="92" /><text fill="#ffd9b0" font-family="Microsoft YaHei, PingFang SC, Noto Sans SC, sans-serif" font-size="15px" font-weight="bold" text-anchor="middle" x="250" y="122">暖光 3200K（夕阳 / 篝火）</text><rect fill="#ff6a2a" height="90" rx="7.619047619047619" ry="6" stroke="none" stroke-width="1.5" width="15.638095238095238" x="90.0" y="140" /><rect fill="#ff6f30" height="90" rx="0" ry="6" stroke="none" stroke-width="1.5" width="15.638095238095238" x="105.23809523809524" y="140" /><rect fill="#ff7537" height="90" rx="0" ry="6" stroke="none" stroke-width="1.5" width="15.638095238095238" x="120.47619047619048" y="140" /><rect fill="#ff7a3e" height="90" rx="0" ry="6" stroke="none" stroke-width="1.5" width="15.638095238095238" x="135.71428571428572" y="140" /><rect fill="#ff8044" height="90" rx="0" ry="6" stroke="none" stroke-width="1.5" width="15.638095238095238" x="150.95238095238096" y="140" /><rect fill="#ff854b" height="90" rx="0" ry="6" stroke="none" stroke-width="1.5" width="15.638095238095238" x="166.1904761904762" y="140" /><rect fill="#ff8b52" height="90" rx="0" ry="6" stroke="none" stroke-width="1.5" width="15.638095238095238" x="181.42857142857142" y="140" /><rect fill="#ff9058" height="90" rx="0" ry="6" stroke="none" stroke-width="1.5" width="15.638095238095238" x="196.66666666666666" y="140" /><rect fill="#ff965f" height="90" rx="0" ry="6" stroke="none" stroke-width="1.5" width="15.638095238095238" x="211.9047619047619" y="140" /><rect fill="#ff9b66" height="90" rx="0" ry="6" stroke="none" stroke-width="1.5" width="15.638095238095238" x="227.14285714285714" y="140" /><rect fill="#ffa16d" height="90" rx="0" ry="6" stroke="none" stroke-width="1.5" width="15.638095238095238" x="242.38095238095238" y="140" /><rect fill="#ffa773" height="90" rx="0" ry="6" stroke="none" stroke-width="1.5" width="15.638095238095238" x="257.6190476190476" y="140" /><rect fill="#ffac7a" height="90" rx="0" ry="6" stroke="none" stroke-width="1.5" width="15.638095238095238" x="272.85714285714283" y="140" /><rect fill="#ffb281" height="90" rx="0" ry="6" stroke="none" stroke-width="1.5" width="15.638095238095238" x="288.0952380952381" y="140" /><rect fill="#ffb787" height="90" rx="0" ry="6" stroke="none" stroke-width="1.5" width="15.638095238095238" x="303.3333333333333" y="140" /><rect fill="#ffbd8e" height="90" rx="0" ry="6" stroke="none" stroke-width="1.5" width="15.638095238095238" x="318.57142857142856" y="140" /><rect fill="#ffc295" height="90" rx="0" ry="6" stroke="none" stroke-width="1.5" width="15.638095238095238" x="333.8095238095238" y="140" /><rect fill="#ffc89b" height="90" rx="0" ry="6" stroke="none" stroke-width="1.5" width="15.638095238095238" x="349.04761904761904" y="140" /><rect fill="#ffcda2" height="90" rx="0" ry="6" stroke="none" stroke-width="1.5" width="15.638095238095238" x="364.2857142857143" y="140" /><rect fill="#ffd3a9" height="90" rx="0" ry="6" stroke="none" stroke-width="1.5" width="15.638095238095238" x="379.5238095238095" y="140" /><rect fill="#ffd9b0" height="90" rx="7.619047619047619" ry="6" stroke="none" stroke-width="1.5" width="15.638095238095238" x="394.76190476190476" y="140" /><text fill="#9aa0a6" font-family="Microsoft YaHei, PingFang SC, Noto Sans SC, sans-serif" font-size="12px" font-weight="normal" text-anchor="middle" x="250" y="260">→ 傍晚露营、室内烛光、温馨的小屋</text><rect fill="#2b2b2b" height="190" rx="12" ry="6" stroke="#4ea1ff" stroke-width="2" width="380" x="460" y="92" /><text fill="#b0d0ff" font-family="Microsoft YaHei, PingFang SC, Noto Sans SC, sans-serif" font-size="15px" font-weight="bold" text-anchor="middle" x="650" y="122">冷光 6500K（阴天 / 月光）</text><rect fill="#b0d0ff" height="90" rx="7.619047619047619" ry="6" stroke="none" stroke-width="1.5" width="15.638095238095238" x="490.0" y="140" /><rect fill="#aacafc" height="90" rx="0" ry="6" stroke="none" stroke-width="1.5" width="15.638095238095238" x="505.23809523809524" y="140" /><rect fill="#a4c4fa" height="90" rx="0" ry="6" stroke="none" stroke-width="1.5" width="15.638095238095238" x="520.4761904761905" y="140" /><rect fill="#9ebff8" height="90" rx="0" ry="6" stroke="none" stroke-width="1.5" width="15.638095238095238" x="535.7142857142857" y="140" /><rect fill="#98b9f6" height="90" rx="0" ry="6" stroke="none" stroke-width="1.5" width="15.638095238095238" x="550.952380952381" y="140" /><rect fill="#92b3f4" height="90" rx="0" ry="6" stroke="none" stroke-width="1.5" width="15.638095238095238" x="566.1904761904761" y="140" /><rect fill="#8caef2" height="90" rx="0" ry="6" stroke="none" stroke-width="1.5" width="15.638095238095238" x="581.4285714285714" y="140" /><rect fill="#86a8f0" height="90" rx="0" ry="6" stroke="none" stroke-width="1.5" width="15.638095238095238" x="596.6666666666666" y="140" /><rect fill="#80a2ee" height="90" rx="0" ry="6" stroke="none" stroke-width="1.5" width="15.638095238095238" x="611.9047619047619" y="140" /><rect fill="#7a9dec" height="90" rx="0" ry="6" stroke="none" stroke-width="1.5" width="15.638095238095238" x="627.1428571428571" y="140" /><rect fill="#7597ea" height="90" rx="0" ry="6" stroke="none" stroke-width="1.5" width="15.638095238095238" x="642.3809523809524" y="140" /><rect fill="#6f91e8" height="90" rx="0" ry="6" stroke="none" stroke-width="1.5" width="15.638095238095238" x="657.6190476190476" y="140" /><rect fill="#698ce6" height="90" rx="0" ry="6" stroke="none" stroke-width="1.5" width="15.638095238095238" x="672.8571428571429" y="140" /><rect fill="#6386e4" height="90" rx="0" ry="6" stroke="none" stroke-width="1.5" width="15.638095238095238" x="688.0952380952381" y="140" /><rect fill="#5d80e2" height="90" rx="0" ry="6" stroke="none" stroke-width="1.5" width="15.638095238095238" x="703.3333333333333" y="140" /><rect fill="#577be0" height="90" rx="0" ry="6" stroke="none" stroke-width="1.5" width="15.638095238095238" x="718.5714285714286" y="140" /><rect fill="#5175de" height="90" rx="0" ry="6" stroke="none" stroke-width="1.5" width="15.638095238095238" x="733.8095238095239" y="140" /><rect fill="#4b6fdc" height="90" rx="0" ry="6" stroke="none" stroke-width="1.5" width="15.638095238095238" x="749.047619047619" y="140" /><rect fill="#456ada" height="90" rx="0" ry="6" stroke="none" stroke-width="1.5" width="15.638095238095238" x="764.2857142857142" y="140" /><rect fill="#3f64d8" height="90" rx="0" ry="6" stroke="none" stroke-width="1.5" width="15.638095238095238" x="779.5238095238095" y="140" /><rect fill="#3a5fd6" height="90" rx="7.619047619047619" ry="6" stroke="none" stroke-width="1.5" width="15.638095238095238" x="794.7619047619048" y="140" /><text fill="#9aa0a6" font-family="Microsoft YaHei, PingFang SC, Noto Sans SC, sans-serif" font-size="12px" font-weight="normal" text-anchor="middle" x="650" y="260">→ 深夜森林、废墟、冷静的实验室</text><text fill="#dddddd" font-family="Microsoft YaHei, PingFang SC, Noto Sans SC, sans-serif" font-size="14px" font-weight="bold" text-anchor="start" x="90" y="320">常见色温参考</text><rect fill="#1a1a1a" height="22" rx="11" ry="6" stroke="#3a3a3a" stroke-width="1.5" width="720" x="90" y="338" /><rect fill="#ff8a3a" height="22" rx="11" ry="6" stroke="none" stroke-width="1.5" width="34.68571428571428" x="90.0" y="338" /><rect fill="#ff984a" height="22" rx="0" ry="6" stroke="none" stroke-width="1.5" width="34.68571428571428" x="124.28571428571428" y="338" /><rect fill="#ffa65a" height="22" rx="0" ry="6" stroke="none" stroke-width="1.5" width="34.68571428571428" x="158.57142857142856" y="338" /><rect fill="#ffb46a" height="22" rx="0" ry="6" stroke="none" stroke-width="1.5" width="34.68571428571428" x="192.85714285714286" y="338" /><rect fill="#ffc37a" height="22" rx="0" ry="6" stroke="none" stroke-width="1.5" width="34.68571428571428" x="227.14285714285714" y="338" /><rect fill="#ffcc8d" height="22" rx="0" ry="6" stroke="none" stroke-width="1.5" width="34.68571428571428" x="261.42857142857144" y="338" /><rect fill="#ffd5a1" height="22" rx="0" ry="6" stroke="none" stroke-width="1.5" width="34.68571428571428" x="295.7142857142857" y="338" /><rect fill="#ffdeb5" height="22" rx="0" ry="6" stroke="none" stroke-width="1.5" width="34.68571428571428" x="330.0" y="338" /><rect fill="#ffe8c9" height="22" rx="0" ry="6" stroke="none" stroke-width="1.5" width="34.68571428571428" x="364.2857142857143" y="338" /><rect fill="#ffeacc" height="22" rx="0" ry="6" stroke="none" stroke-width="1.5" width="34.68571428571428" x="398.57142857142856" y="338" /><rect fill="#ffeccf" height="22" rx="0" ry="6" stroke="none" stroke-width="1.5" width="34.68571428571428" x="432.85714285714283" y="338" /><rect fill="#ffeed2" height="22" rx="0" ry="6" stroke="none" stroke-width="1.5" width="34.68571428571428" x="467.1428571428571" y="338" /><rect fill="#fff0d6" height="22" rx="0" ry="6" stroke="none" stroke-width="1.5" width="34.68571428571428" x="501.42857142857144" y="338" /><rect fill="#ebe8e0" height="22" rx="0" ry="6" stroke="none" stroke-width="1.5" width="34.68571428571428" x="535.7142857142858" y="338" /><rect fill="#d7e0ea" height="22" rx="0" ry="6" stroke="none" stroke-width="1.5" width="34.68571428571428" x="570.0" y="338" /><rect fill="#c3d8f4" height="22" rx="0" ry="6" stroke="none" stroke-width="1.5" width="34.68571428571428" x="604.2857142857142" y="338" /><rect fill="#b0d0ff" height="22" rx="0" ry="6" stroke="none" stroke-width="1.5" width="34.68571428571428" x="638.5714285714286" y="338" /><rect fill="#9abbff" height="22" rx="0" ry="6" stroke="none" stroke-width="1.5" width="34.68571428571428" x="672.8571428571429" y="338" /><rect fill="#85a7ff" height="22" rx="0" ry="6" stroke="none" stroke-width="1.5" width="34.68571428571428" x="707.1428571428571" y="338" /><rect fill="#6f93ff" height="22" rx="0" ry="6" stroke="none" stroke-width="1.5" width="34.68571428571428" x="741.4285714285714" y="338" /><rect fill="#5a7fff" height="22" rx="11" ry="6" stroke="none" stroke-width="1.5" width="34.68571428571428" x="775.7142857142857" y="338" /><text fill="#dddddd" font-family="Microsoft YaHei, PingFang SC, Noto Sans SC, sans-serif" font-size="11.5px" font-weight="bold" text-anchor="middle" x="90" y="382">2000K</text><text fill="#6e6e6e" font-family="Microsoft YaHei, PingFang SC, Noto Sans SC, sans-serif" font-size="10px" font-weight="normal" text-anchor="middle" x="90" y="400">烛光</text><text fill="#dddddd" font-family="Microsoft YaHei, PingFang SC, Noto Sans SC, sans-serif" font-size="11.5px" font-weight="bold" text-anchor="middle" x="300" y="382">3200K</text><text fill="#6e6e6e" font-family="Microsoft YaHei, PingFang SC, Noto Sans SC, sans-serif" font-size="10px" font-weight="normal" text-anchor="middle" x="300" y="400">暖白·夕阳</text><text fill="#dddddd" font-family="Microsoft YaHei, PingFang SC, Noto Sans SC, sans-serif" font-size="11.5px" font-weight="bold" text-anchor="middle" x="450" y="382">5500K</text><text fill="#6e6e6e" font-family="Microsoft YaHei, PingFang SC, Noto Sans SC, sans-serif" font-size="10px" font-weight="normal" text-anchor="middle" x="450" y="400">正午日光</text><text fill="#dddddd" font-family="Microsoft YaHei, PingFang SC, Noto Sans SC, sans-serif" font-size="11.5px" font-weight="bold" text-anchor="middle" x="590" y="382">6500K</text><text fill="#6e6e6e" font-family="Microsoft YaHei, PingFang SC, Noto Sans SC, sans-serif" font-size="10px" font-weight="normal" text-anchor="middle" x="590" y="400">阴天·默认</text><text fill="#dddddd" font-family="Microsoft YaHei, PingFang SC, Noto Sans SC, sans-serif" font-size="11.5px" font-weight="bold" text-anchor="middle" x="790" y="382">10000K</text><text fill="#6e6e6e" font-family="Microsoft YaHei, PingFang SC, Noto Sans SC, sans-serif" font-size="10px" font-weight="normal" text-anchor="middle" x="790" y="400">蓝色阴影</text><rect fill="#1a1a1a" height="96" rx="8" ry="6" stroke="#3a3a3a" stroke-width="1.5" width="780" x="60" y="424" /><text fill="#6bcf7f" font-family="Microsoft YaHei, PingFang SC, Noto Sans SC, sans-serif" font-size="14px" font-weight="bold" text-anchor="start" x="90" y="454">Unity 操作</text><text fill="#9aa0a6" font-family="Microsoft YaHei, PingFang SC, Noto Sans SC, sans-serif" font-size="12.5px" font-weight="normal" text-anchor="start" x="90" y="482">选中 Directional Light → 勾选 Use Color Temperature → 拖动 Temperature 到想要的 K 值</text><text fill="#ffcc66" font-family="Microsoft YaHei, PingFang SC, Noto Sans SC, sans-serif" font-size="12.5px" font-weight="normal" text-anchor="start" x="90" y="506">小技巧：白天世界用 5500~6500K；想渲染黄昏/清晨，把主光降到 3000~3500K</text></svg>